<?xml version="1.0" standalone="no"?>
<!DOCTYPE svg PUBLIC "-//W3C//DTD SVG 20010904//EN"
 "http://www.w3.org/TR/2001/REC-SVG-20010904/DTD/svg10.dtd">
<svg version="1.0" xmlns="http://www.w3.org/2000/svg"
 width="225.000000pt" height="225.000000pt" viewBox="0 0 225.000000 225.000000"
 preserveAspectRatio="xMidYMid meet">

<g transform="translate(0.000000,225.000000) scale(0.100000,-0.100000)"
fill="#000000" stroke="none">
<path d="M0 1125 l0 -1125 1125 0 1125 0 0 1125 0 1125 -1125 0 -1125 0 0
-1125z m1161 796 c1 -9 1 -20 0 -24 -1 -5 3 -6 9 -2 5 3 10 13 10 22 0 9 3 13
7 10 3 -4 6 -20 5 -37 0 -17 4 -28 9 -25 5 4 9 -8 9 -25 0 -22 -8 -38 -29 -56
-16 -13 -32 -35 -35 -49 -8 -31 -26 -33 -20 -2 4 20 4 20 -5 2 -5 -12 -5 -25
1 -32 7 -9 6 -13 -3 -14 -10 0 -11 -2 -1 -6 6 -2 10 -9 6 -14 -10 -17 -20 -9
-22 19 -1 15 -5 50 -9 77 -7 44 -11 50 -34 53 -19 2 -31 -4 -43 -23 -18 -27
-40 -26 -29 2 5 12 3 14 -7 8 -8 -5 -11 -3 -8 5 2 8 23 20 46 29 48 17 87 6
101 -31 8 -21 9 -19 11 12 1 19 3 61 3 93 2 48 4 55 15 40 6 -9 13 -24 13 -32z
m139 -39 c1 -36 1 -36 17 -17 15 19 15 19 10 -12 -4 -20 -2 -33 6 -36 8 -3 7
-10 -6 -25 -14 -15 -15 -21 -5 -24 11 -4 10 -8 -1 -21 -7 -10 -10 -17 -5 -17
5 -1 -5 -13 -21 -28 -17 -15 -37 -40 -45 -56 -8 -16 -28 -38 -45 -48 -16 -10
-25 -18 -19 -18 6 0 30 -25 52 -55 38 -51 40 -55 19 -55 -12 0 -34 7 -50 14
l-27 15 5 -41 c3 -22 7 -44 10 -48 3 -4 -9 -10 -26 -14 -45 -9 -61 -7 -54 4 3
6 1 10 -5 10 -6 0 -8 5 -5 11 4 5 19 7 35 4 22 -5 28 -2 33 14 6 24 -28 56
-97 91 -85 43 -103 106 -45 154 18 16 24 26 16 29 -6 2 -1 2 11 0 15 -2 21 0
17 7 -3 5 -2 10 4 10 9 0 11 -7 12 -57 0 -25 21 -31 36 -10 6 6 16 30 23 52 8
25 34 60 72 96 46 44 59 64 60 88 1 43 18 28 18 -17z m-329 -93 c9 -17 8 -23
-2 -30 -20 -13 -37 -11 -19 2 12 9 11 10 -7 6 -28 -6 -28 -3 -5 22 22 25 19
25 33 0z m-121 -179 c22 -11 44 -29 50 -41 11 -20 11 -20 -14 -4 -36 24 -88
13 -121 -26 -15 -19 -31 -29 -40 -25 -22 8 -18 33 7 50 l22 16 -22 0 c-12 0
-22 4 -22 9 0 17 43 41 73 41 15 0 45 -9 67 -20z m575 -14 c-22 -33 -11 -69
39 -125 l41 -46 37 20 c43 23 57 16 34 -17 -9 -12 -16 -35 -16 -50 0 -32 -6
-34 -31 -12 -17 15 -19 15 -31 -10 -9 -21 -9 -35 0 -58 7 -20 8 -37 2 -48 -19
-35 -119 -66 -134 -41 -3 5 8 14 24 21 17 7 33 23 36 35 16 62 -16 112 -56 87
-17 -10 -20 -10 -20 5 0 20 28 53 47 53 20 0 16 8 -27 49 -56 53 -54 94 9 136
47 33 67 33 46 1z m-766 0 c7 -8 24 -17 38 -21 20 -5 23 -9 14 -15 -8 -5 -12
-18 -9 -34 4 -22 2 -26 -18 -26 -45 0 -75 49 -58 94 8 20 18 20 33 2z m846
-13 c14 -15 25 -31 25 -35 0 -4 12 -13 26 -21 23 -12 24 -15 9 -27 -28 -23
-77 -14 -107 20 -30 33 -35 59 -16 78 19 19 35 14 63 -15z m85 8 c0 -5 2 -15
5 -23 3 -7 1 -19 -4 -27 -8 -12 -13 -12 -35 3 -32 20 -32 28 -3 42 29 15 37
16 37 5z m-702 -43 c22 -19 12 -46 -33 -89 l-45 -43 29 -17 c15 -9 31 -26 34
-38 6 -24 4 -25 -22 -9 -26 16 -53 -6 -49 -41 4 -35 39 -38 108 -11 29 11 55
19 57 16 7 -6 -62 -36 -107 -47 -30 -7 -28 -8 14 -4 49 5 49 5 31 -15 -18 -20
-17 -20 11 -19 24 0 26 2 10 8 -14 5 -16 10 -8 15 7 4 10 11 8 15 -3 4 4 8 15
8 17 2 18 -1 9 -13 -10 -12 -8 -14 16 -14 16 0 58 7 93 15 35 9 66 13 69 10 9
-9 -2 -13 -73 -28 -69 -14 -70 -14 -76 -50 -3 -20 -11 -43 -18 -51 -7 -9 -11
-23 -7 -31 7 -19 -8 -20 -26 -1 -12 12 -20 10 -53 -10 l-39 -23 94 -4 95 -3
-99 -2 -99 -2 7 -119 c7 -129 32 -244 67 -313 31 -60 71 -110 80 -101 4 4 34
58 65 118 31 61 60 114 64 119 5 5 36 -47 70 -115 34 -68 64 -126 67 -129 8
-8 52 55 84 120 38 79 56 172 61 310 l3 105 -135 5 -135 6 129 2 129 2 -49 48
c-27 27 -58 65 -69 85 -11 20 -23 37 -26 37 -10 0 -29 -57 -22 -64 4 -3 0 -6
-9 -6 -8 0 -23 9 -32 19 -14 15 -15 24 -7 40 9 17 8 22 -9 31 -12 7 -20 21
-20 37 0 21 3 24 12 15 16 -16 55 -15 61 1 2 7 16 -1 36 -22 17 -18 29 -26 25
-17 -8 20 -1 20 38 0 18 -9 47 -14 69 -12 22 2 39 1 39 -3 0 -11 -48 -39 -67
-39 -29 -1 39 -57 84 -69 66 -19 147 -14 177 10 19 15 25 27 21 40 -9 28 12
23 31 -6 21 -33 7 -71 -33 -86 -20 -7 -23 -13 -15 -21 7 -7 12 -23 12 -36 0
-20 -3 -22 -15 -12 -8 6 -35 18 -61 26 l-47 14 47 -43 c44 -42 54 -65 40 -102
-6 -14 -8 -13 -21 4 -7 12 -33 34 -57 51 -37 25 -43 27 -39 11 3 -11 -4 -28
-16 -40 -29 -29 -42 -26 -25 7 24 47 17 71 -33 121 -26 25 -46 51 -45 56 1 6
-12 16 -29 22 -28 11 -29 10 -18 -5 7 -9 34 -37 60 -62 l47 -45 -9 -110 c-4
-60 -10 -127 -13 -147 l-6 -36 48 31 c37 24 45 34 34 40 -7 5 -25 7 -38 4 -16
-3 -24 0 -24 9 0 18 36 54 54 54 7 0 16 9 19 19 2 10 14 24 26 31 20 10 21 9
15 -14 -7 -30 12 -42 50 -32 26 6 49 55 39 84 -5 14 -4 15 8 4 16 -15 17 -92
4 -233 -5 -60 -4 -92 4 -107 10 -19 9 -22 -6 -22 -25 0 -63 28 -63 45 0 26
-23 28 -42 4 l-19 -24 3 53 c2 28 2 52 0 52 -1 0 -20 -9 -40 -19 -41 -21 -92
-68 -92 -84 0 -6 -3 -8 -6 -4 -4 3 -17 -16 -31 -43 -29 -58 -98 -138 -166
-192 -49 -38 -49 -38 -78 -21 -53 31 -158 147 -194 213 -19 36 -35 61 -35 57
0 -5 -12 6 -26 23 -23 27 -90 70 -110 70 -3 0 -3 -11 0 -25 4 -14 4 -36 0 -50
l-6 -25 -21 26 -20 26 -13 -31 c-11 -27 -59 -59 -71 -48 -2 3 1 24 6 48 8 33
6 69 -5 141 -13 80 -13 104 -2 140 l12 43 4 -35 c5 -45 29 -72 61 -68 21 2 26
8 26 31 -1 31 -1 31 26 17 10 -6 19 -19 19 -29 0 -12 10 -20 28 -24 17 -4 33
-16 40 -32 16 -34 15 -40 -2 -26 -15 12 -66 5 -66 -9 0 -5 8 -11 18 -14 10 -4
33 -21 52 -39 32 -31 33 -31 27 -7 -4 14 -10 80 -14 147 -3 72 -10 120 -15
116 -6 -3 -8 -23 -6 -45 3 -34 1 -38 -17 -36 -13 2 -24 15 -31 36 l-10 33 -41
-30 c-23 -17 -46 -38 -51 -48 -14 -24 -25 -10 -25 29 0 24 9 39 39 66 l39 34
-30 -8 c-37 -9 -68 -24 -77 -38 -5 -7 -8 -3 -8 9 0 11 7 31 16 43 14 21 13 23
-13 46 -24 21 -26 27 -18 52 12 34 30 41 32 12 3 -34 27 -50 81 -56 52 -5 112
10 149 37 25 18 30 33 8 25 -43 -17 -134 51 -106 79 14 14 14 39 -1 72 l-12
26 -17 -22 c-23 -31 -49 -19 -49 23 0 19 -8 44 -17 57 l-16 24 34 -6 c19 -4
40 -15 48 -25 14 -16 18 -13 58 45 24 35 43 67 43 72 0 22 50 21 78 -1z m198
-55 c18 -16 34 -31 34 -35 0 -15 -19 -8 -49 18 -24 20 -31 22 -31 10 0 -9 5
-16 12 -16 6 0 8 -3 5 -7 -4 -3 -2 -12 4 -20 8 -9 8 -13 1 -13 -6 0 -9 -7 -6
-15 4 -8 1 -15 -6 -15 -7 0 -10 -6 -7 -14 3 -8 -1 -17 -9 -20 -22 -8 -24 -8
-18 7 3 9 -3 13 -18 12 -34 -3 -57 21 -53 56 5 39 24 55 58 52 22 -1 27 2 23
13 -9 23 22 16 60 -13z m214 7 c0 -5 -4 -10 -10 -10 -5 0 -10 5 -10 10 0 6 5
10 10 10 6 0 10 -4 10 -10z m-165 -10 c3 -5 -1 -10 -9 -10 -8 0 -18 5 -21 10
-3 6 1 10 9 10 8 0 18 -4 21 -10z m-15 -122 c0 -13 -53 -5 -57 9 -2 6 4 13 14
15 19 5 43 -9 43 -24z m84 16 c9 -3 16 -14 16 -24 0 -24 -36 -15 -43 11 -5 20
1 23 27 13z m52 -35 c19 -22 19 -22 -3 -8 -13 8 -23 17 -23 21 0 12 6 9 26
-13z m-236 -9 c0 -4 -7 -11 -16 -14 -9 -4 -14 -9 -12 -12 3 -3 21 4 39 15 36
22 131 29 159 11 23 -14 3 -24 -25 -12 -23 11 -27 9 -35 -12 -10 -27 -24 -33
-100 -45 -47 -8 -73 0 -50 14 5 3 7 17 4 30 -3 13 -3 28 0 34 7 11 36 4 36 -9z
m534 -10 c5 0 22 -6 39 -14 18 -8 44 -17 58 -20 26 -6 49 -41 49 -76 0 -25 -5
-25 -30 0 -35 35 -79 21 -72 -22 3 -19 -22 -25 -33 -8 -4 7 -12 7 -25 0 -10
-5 -35 -10 -54 -10 l-36 0 40 41 c42 43 47 54 30 64 -5 3 -10 22 -10 42 0 34
1 35 18 20 10 -10 22 -17 26 -17z m-821 -19 c-4 -9 -10 -21 -15 -28 -11 -14
20 -63 54 -87 21 -15 21 -15 -6 -22 -15 -3 -37 -2 -49 3 -12 6 -38 8 -57 5
-29 -4 -33 -3 -23 9 18 22 0 41 -33 37 -23 -2 -31 -10 -40 -38 l-12 -35 -7 39
c-10 50 9 86 50 98 34 11 69 25 105 42 28 14 42 3 33 -23z m127 3 c0 -8 -7
-14 -15 -14 -10 0 -15 10 -15 26 0 22 2 25 15 14 8 -7 15 -19 15 -26z m535 11
c0 -25 -18 -34 -30 -15 -7 11 11 40 24 40 3 0 6 -11 6 -25z m-238 -92 c0 -16
2 -35 6 -43 6 -14 -10 -28 -80 -73 -9 -5 -16 1 -24 20 -5 15 -24 43 -42 61
l-31 32 25 0 c13 0 47 7 74 14 70 20 72 19 72 -11z m89 -30 c-10 -10 -19 5
-10 18 6 11 8 11 12 0 2 -7 1 -15 -2 -18z m38 -55 c15 -41 2 -58 -44 -58 -47
0 -57 25 -13 36 19 5 30 2 40 -11 12 -18 13 -18 13 2 0 28 -25 46 -53 39 -13
-3 -51 -28 -86 -56 -65 -52 -81 -59 -81 -37 0 29 105 107 144 107 14 0 26 4
26 10 0 19 45 -8 54 -32z m-230 -24 c8 -30 -1 -67 -15 -59 -12 8 -12 85 0 85
5 0 12 -12 15 -26z m-6 -85 c26 -24 21 -39 -14 -39 -15 0 -24 6 -24 16 0 11
-5 14 -16 10 -9 -3 -27 -9 -40 -12 -19 -5 -22 -10 -14 -24 7 -13 4 -20 -15
-28 -18 -9 -24 -8 -29 4 -4 11 -10 12 -25 4 -30 -15 -31 -14 -31 40 l0 50 93
0 c80 0 96 -3 115 -21z m106 -6 c-13 -62 -15 -64 -42 -61 -19 2 -28 11 -34 33
-9 36 10 55 54 55 26 0 28 -3 22 -27z m226 -23 c0 -51 -6 -60 -29 -37 -10 10
-14 9 -22 -6 -14 -24 -53 -4 -44 23 8 25 -54 48 -70 26 -6 -7 -19 -16 -30 -19
-18 -4 -18 -5 3 -6 35 -2 28 -31 -9 -31 -29 0 -30 1 -24 33 14 71 7 67 121 67
l104 0 0 -50z m60 0 c0 -13 -1 -13 -10 0 -5 8 -10 22 -10 30 0 13 1 13 10 0 5
-8 10 -22 10 -30z m-430 -36 c0 -32 -26 -37 -44 -9 -21 31 -20 34 7 44 25 10
37 -2 37 -35z m245 36 c25 -9 25 -11 10 -40 -20 -39 -45 -30 -45 16 0 38 -1
38 35 24z m-181 -42 c-3 -4 -16 -8 -30 -8 -31 0 -32 27 -1 32 23 3 40 -10 31
-24z m-172 -70 c-9 -9 -18 -6 -37 12 l-26 24 23 18 c23 17 23 17 37 -13 11
-22 12 -32 3 -41z m478 36 c0 -6 -9 -19 -20 -29 -16 -14 -22 -15 -35 -5 -13
11 -13 15 0 41 14 25 18 27 35 17 11 -7 20 -18 20 -24z m-413 11 c1 -5 -8 -15
-21 -21 -20 -9 -26 -9 -31 4 -6 17 12 33 34 29 8 -1 16 -6 18 -12z m327 9 c19
-7 22 -34 4 -34 -22 0 -41 17 -34 29 8 13 9 13 30 5z m-157 -30 c3 -9 -3 -23
-15 -34 -11 -10 -43 -61 -70 -112 -49 -90 -102 -170 -102 -154 0 4 31 69 69
144 38 76 71 145 75 155 7 21 35 22 43 1z m-263 -33 c3 -5 -1 -14 -9 -21 -13
-10 -15 -9 -15 9 0 21 14 28 24 12z m506 -12 c0 -18 -2 -19 -15 -9 -15 12 -12
30 6 30 5 0 9 -10 9 -21z m-114 -228 c23 -54 16 -50 -24 14 -75 118 -123 213
-110 217 12 4 95 -140 134 -231z m-422 11 c8 -15 17 -45 21 -66 5 -26 15 -41
31 -48 31 -15 30 -26 -3 -34 -17 -5 -37 -1 -54 9 -25 14 -29 14 -44 -3 -9 -10
-20 -31 -24 -46 l-8 -29 -12 24 c-16 29 -17 87 -1 105 8 11 8 19 -1 34 -10 17
-10 26 1 49 12 25 14 26 18 8 6 -31 19 -40 37 -25 10 8 15 23 12 37 -5 28 9
20 27 -15z m581 -26 c8 -3 21 4 28 14 8 11 17 17 20 13 11 -10 8 -63 -3 -63
-6 0 -3 -11 6 -25 19 -30 14 -90 -11 -114 -13 -14 -15 -13 -15 10 0 14 -11 35
-23 48 -21 19 -25 20 -37 6 -15 -18 -61 -20 -78 -3 -9 9 -6 14 11 22 14 7 29
31 40 66 10 30 24 61 30 69 10 12 13 10 15 -11 2 -15 10 -29 17 -32z"/>
<path d="M1234 1788 l-19 -23 23 19 c21 18 27 26 19 26 -2 0 -12 -10 -23 -22z"/>
<path d="M1181 1724 c0 -11 3 -14 6 -6 3 7 2 16 -1 19 -3 4 -6 -2 -5 -13z"/>
<path d="M1062 1691 c-11 -7 -11 -9 0 -14 9 -3 15 1 15 9 0 8 -1 14 -1 14 -1
0 -7 -4 -14 -9z"/>
<path d="M1171 1674 c0 -11 3 -14 6 -6 3 7 2 16 -1 19 -3 4 -6 -2 -5 -13z"/>
<path d="M947 1187 c-13 -10 -14 -14 -2 -24 10 -9 14 -8 19 10 7 27 4 30 -17
14z"/>
<path d="M1080 651 c-16 -33 -30 -67 -30 -76 0 -17 57 -135 65 -135 3 0 19 30
35 67 l31 68 -27 63 c-14 34 -30 65 -35 68 -5 2 -22 -22 -39 -55z m69 -26 l22
-51 -26 -57 c-15 -31 -28 -57 -31 -57 -2 0 -15 22 -29 50 -35 68 -33 103 3 93
12 -3 17 -14 16 -36 0 -18 3 -43 7 -57 6 -21 7 -22 9 -5 2 11 3 36 4 55 0 20
7 38 16 42 12 5 12 7 -2 7 -11 1 -19 10 -19 24 l-2 22 -4 -22 c-4 -23 -33 -33
-33 -13 0 21 32 72 40 64 4 -5 18 -32 29 -59z"/>
<path d="M981 1452 c-7 -13 -6 -23 1 -30 28 -28 63 3 38 33 -16 20 -27 19 -39
-3z"/>
<path d="M1106 921 c-4 -5 -2 -12 3 -15 5 -4 12 -2 15 3 4 5 2 12 -3 15 -5 4
-12 2 -15 -3z"/>
</g>
</svg>
